<svg data-v-0dd9719b="" version="1.0" xmlns="http://www.w3.org/2000/svg" xmlns:xlink="http://www.w3.org/1999/xlink" width="100%" height="100%" viewBox="0 0 340.000000 250.000000" preserveAspectRatio="xMidYMid meet" color-interpolation-filters="sRGB" style="margin: auto;"> <rect data-v-0dd9719b="" x="0" y="0" width="100%" height="100%" fill="#ffffff" fill-opacity="1" class="background"></rect> <rect data-v-0dd9719b="" x="0" y="0" width="100%" height="100%" fill="url(#watermark)" fill-opacity="1" class="watermarklayer"></rect> <g data-v-0dd9719b="" fill="#1ba0d8" class="icon-text-wrapper icon-svg-group iconsvg" transform="translate(47.99500274658203,95)"><g class="iconsvg-imagesvg" transform="translate(0,0)"><g><rect fill="#1ba0d8" fill-opacity="0" stroke-width="2" x="0" y="0" width="60" height="60" class="image-rect"></rect> <svg filter="url(#colors9177393283)" x="0" y="0" width="60" height="60" filtersec="colorsf6119796637" class="image-svg-svg primary" style="overflow: visible;"><svg xmlns="http://www.w3.org/2000/svg" viewBox="-0.02499999999999991 -0.02499999999999991 79.75 79.75"><path d="M39.9 39.9c-14.3 0-26-11.6-26-26 0-2.1 1.7-3.9 3.9-3.9H35m22.5 5.3L45.4 3.1c-1.5-1.5-4-1.5-5.5 0-10.1 10.1-10.1 26.6 0 36.7m29.8-4.9V17.8c0-2.1-1.7-3.9-3.9-3.9-14.3 0-26 11.6-26 26m24.7 17.6l12.1-12.1c1.5-1.5 1.5-4 0-5.5-10.1-10.1-26.6-10.1-36.7 0m4.9 29.8H62c2.1 0 3.9-1.7 3.9-3.9 0-14.3-11.6-26-26-26M22.2 64.5l12.1 12.1c1.5 1.5 4 1.5 5.5 0C50 66.5 50 50 39.9 39.9M10 44.8V62c0 2.1 1.7 3.9 3.9 3.9 14.3 0 26-11.6 26-26M15.3 22.2L3.1 34.4c-1.5 1.5-1.5 4 0 5.5C13.3 50 29.7 50 39.9 39.9" fill="none" stroke="#333" stroke-width="4" stroke-miterlimit="10"></path></svg></svg> <defs><filter id="colors9177393283"><feColorMatrix type="matrix" values="0 0 0 0 0.4375  0 0 0 0 0.7734375  0 0 0 0 0.7421875  0 0 0 1 0" class="icon-fecolormatrix"></feColorMatrix></filter> <filter id="colorsf6119796637"><feColorMatrix type="matrix" values="0 0 0 0 0.99609375  0 0 0 0 0.99609375  0 0 0 0 0.99609375  0 0 0 1 0" class="icon-fecolormatrix"></feColorMatrix></filter> <filter id="colorsb1110088127"><feColorMatrix type="matrix" values="0 0 0 0 0  0 0 0 0 0  0 0 0 0 0  0 0 0 1 0" class="icon-fecolormatrix"></feColorMatrix></filter></defs></g></g> <g transform="translate(67,0.9037494659423828)"><g data-gra="path-name" fill-rule="" class="tp-name iconsvg-namesvg" transform="translate(0,0)"><g transform="scale(1)"><g><path d="M10.72-17.93L10.9-36.56Q15.29-34.8 15.47-34.45L15.47-34.45Q15.47-34.45 15.12-34.1L15.12-34.1Q13.89-33.4 13.89-32.87L13.89-32.87 13.54-17.93 34.28-17.93 36.74-20.39 40.43-17.05 40.25-16.88 21.8-16.88Q27.95-2.99 43.07-0.88L43.07-0.88 43.07-0.35Q39.55-0.35 38.5 2.11L38.5 2.11Q25.14-2.64 20.57-16.88L20.57-16.88 13.54-16.88 13.18 0.18 24.08-4.04 24.26-3.52Q14.77 1.58 11.78 4.75L11.78 4.75Q11.6 4.92 11.6 4.92L11.6 4.92Q9.67 3.69 8.61 2.11L8.61 2.11Q8.61 2.11 8.96 1.76L8.96 1.76Q10.2 0.35 10.2-0.35L10.2-0.35 10.55-16.88 4.39-16.88 2.46-16.7 1.41-17.93 10.72-17.93ZM31.29-35.16L31.29-35.16Q35.33-31.11 34.45-31.29L34.45-31.29Q34.45-31.29 34.28-31.29L34.28-31.29Q32.7-31.64 30.59-30.06L30.59-30.06Q22.68-24.61 15.29-21.09L15.29-21.09 14.94-21.45Q24.26-27.42 31.29-35.16ZM71.89-36.56L71.89-36.56 76.11-34.28Q76.11-34.28 75.59-33.75L75.59-33.75Q74.53-33.05 74.53-32.87L74.53-32.87 74.53-10.02Q73.83-8.61 71.54-8.61L71.54-8.61Q71.54-13.54 71.72-24.08L71.72-24.08Q71.89-33.05 71.89-36.56ZM50.8-34.28L51.15-34.8Q57.48-31.82 57.3-30.76L57.3-30.76Q58.01-28.3 55.9-26.89L55.9-26.89Q55.2-26.72 54.49-28.65L54.49-28.65Q52.91-32.34 50.8-34.28L50.8-34.28ZM61.17-31.46L61.17-31.46 61.88-31.11Q54.32-10.72 54.14-10.2L54.14-10.2Q53.61-6.68 54.32-1.76L54.32-1.76Q54.84 1.58 54.14 2.46L54.14 2.46Q51.86 3.16 50.98 0.7L50.98 0.7Q50.98 0.35 51.15-1.93L51.15-1.93Q52.03-7.91 51.33-8.79L51.33-8.79Q50.63-9.84 48.69-10.2L48.69-10.2Q47.99-10.37 47.64-10.37L47.64-10.37 47.64-10.72Q47.81-10.72 48.16-10.72L48.16-10.72Q51.33-10.55 52.03-11.43L52.03-11.43Q54.32-15.64 61.17-31.46ZM76.82-27.25L77.34-27.77Q85.25-23.91 86.66-21.97L86.66-21.97Q88.95-19.16 86.48-17.23L86.48-17.23Q85.61-17.23 84.2-19.34L84.2-19.34Q81.21-24.26 76.82-27.25L76.82-27.25ZM65.21-26.89L65.21-26.89 69.08-24.26Q69.08-24.08 68.55-23.91L68.55-23.91Q67.5-23.55 66.97-23.03L66.97-23.03Q66.8-22.68 65.92-21.45L65.92-21.45Q61.52-14.06 58.18-10.37L58.18-10.37 57.66-10.9Q62.93-18.98 65.21-26.89ZM46.58-25.49L46.76-26.02Q52.03-24.08 53.26-22.68L53.26-22.68Q54.32-20.21 52.03-18.98L52.03-18.98Q51.68-18.98 50.63-20.57L50.63-20.57Q48.69-24.08 46.58-25.49L46.58-25.49ZM81.21-15.12L81.21-15.12 84.73-12.13Q84.73-11.95 84.02-11.78L84.02-11.78Q82.79-11.6 82.44-11.07L82.44-11.07Q76.64-2.81 69.26 0.88L69.26 0.88Q64.16 3.52 53.09 5.1L53.09 5.1 52.91 4.39Q64.69 1.93 69.79-1.76L69.79-1.76Q76.82-6.68 81.21-15.12ZM106.17-37.44L106.17-37.44Q110.39-34.8 110.39-34.63L110.39-34.63Q110.21-34.45 109.69-34.45L109.69-34.45Q108.81-34.1 108.46-33.57L108.46-33.57Q106.7-31.46 106-30.41L106-30.41 116.19-30.41Q116.37-30.41 117.25-31.46L117.25-31.46Q118.3-32.52 118.3-32.52L118.3-32.52Q121.29-30.23 121.82-29.18L121.82-29.18Q121.82-29 121.46-29L121.46-29Q118.3-28.65 113.73-22.68L113.73-22.68 123.75-22.68Q123.93-22.68 124.8-23.73L124.8-23.73Q125.51-24.61 125.68-24.61L125.68-24.61Q127.79-23.38 129.02-21.8L129.02-21.8Q129.02-21.8 128.14-21.09L128.14-21.09Q127.27-20.39 127.27-20.21L127.27-20.21Q127.27-15.82 127.44-11.6L127.44-11.6Q126.21-10.55 124.45-10.37L124.45-10.37 124.45-12.3 117.42-12.3 117.42-0.7Q116.19 2.29 123.75 1.93L123.75 1.93Q128.67 1.93 129.38 0.7L129.38 0.7Q130.43 0 130.96-6.86L130.96-6.86 131.48-6.86Q131.31-0.53 133.59 0.7L133.59 0.7Q133.95 0.88 133.95 1.05L133.95 1.05Q133.42 4.39 127.79 4.39L127.79 4.39 120.06 4.39Q113.91 4.92 114.61 0.88L114.61 0.88 114.61-12.3 113.03-12.3Q111.8 1.76 91.05 5.8L91.05 5.8 90.88 5.1Q109.16-0.35 110.39-12.3L110.39-12.3 101.6-12.3 101.6-10.2Q100.37-9.14 98.61-9.14L98.61-9.14 99.14-23.03Q94.75-19.16 90.88-17.23L90.88-17.23 90.53-17.58Q102.48-27.42 106.17-37.44ZM116.37-29.53L116.37-29.53 105.29-29.53Q103.18-26.72 100.02-23.73L100.02-23.73 101.6-22.68 112.15-22.68Q114.61-26.37 116.37-29.53ZM110.74-21.62L110.74-21.62 103.01-21.62Q101.25-21.97 101.6-19.86L101.6-19.86 101.6-13.36 110.39-13.36Q110.74-14.77 110.74-21.62ZM124.45-13.36L124.45-21.62 113.55-21.62Q113.55-18.63 113.2-13.36L113.2-13.36 124.45-13.36ZM119.71-8.79L119.88-9.32Q125.33-7.38 126.56-5.63L126.56-5.63Q127.79-2.99 125.68-2.11L125.68-2.11Q125.16-2.11 124.28-3.34L124.28-3.34Q122.7-6.33 119.71-8.79L119.71-8.79ZM170.51-33.75L172.97-36.39 177.19-32.87 177.01-32.7 166.29-32.7 166.29-8.26 171.21-8.61 173.67-11.43 178.42-7.91 178.24-7.73 166.29-7.03 166.29 3.52Q164.18 4.92 162.95 4.57L162.95 4.57Q163.48 0.7 163.3-6.86L163.3-6.86 138.87-4.92 137.11-4.22 136.05-5.8 146.07-6.5 146.07-32.7 141.68-32.7 138.52-32.34 137.46-33.75 170.51-33.75ZM163.3-24.96L163.3-32.7 149.06-32.7 149.06-24.96 163.3-24.96ZM163.3-16.17L163.3-23.91 149.06-23.91 149.06-16.17 163.3-16.17ZM163.3-7.91L163.3-15.12 149.06-15.12 149.06-6.86 163.3-7.91Z" transform="translate(-1.409999966621399, 37.439998626708984)"></path></g> <!----> <!----> <!----> <!----> <!----> <!----> <!----></g></g> <g data-gra="path-slogan" fill-rule="" class="tp-slogan iconsvg-slogansvg" fill="#70c6be" transform="translate(35.53999710083008,49.23999786376953)"><!----> <!----> <g transform="scale(1, 1)"><g transform="scale(1)"><path d="M8.06-6.05L8.06-6.05L6.94-6.05Q6.52-7.78 4.55-7.83L4.55-7.83Q1.83-7.69 1.73-4.36L1.73-4.36Q1.73-0.80 4.59-0.80L4.59-0.80Q6.56-0.84 7.03-3.19L7.03-3.19L8.16-3.19Q7.64 0.05 4.36 0.14L4.36 0.14Q0.61 0 0.52-4.31L0.52-4.31Q0.70-8.63 4.55-8.81L4.55-8.81Q7.59-8.72 8.06-6.05ZM10.69-5.06L15.19-5.06L15.19-8.58L16.36-8.58L16.36 0L15.19 0L15.19-3.98L10.69-3.98L10.69 0L9.52 0L9.52-8.58L10.69-8.58L10.69-5.06ZM23.81 0L22.97-2.48L19.50-2.48L18.61 0L17.44 0L20.67-8.58L21.98-8.58L25.08 0L23.81 0ZM21.23-7.31L19.88-3.52L22.55-3.52L21.28-7.31L21.23-7.31ZM27.52-8.58L31.83-1.64L31.83-8.58L32.95-8.58L32.95 0L31.64 0L27.28-6.94L27.23-6.94L27.23 0L26.11 0L26.11-8.58L27.52-8.58ZM41.16-3.61L38.53-3.61L38.53-4.59L42.28-4.59L42.28 0L41.53 0L41.25-1.08Q40.27 0.09 38.44 0.14L38.44 0.14Q36.70 0.14 35.77-0.75L35.77-0.75Q34.36-2.06 34.41-4.36L34.41-4.36Q34.73-8.63 38.48-8.81L38.48-8.81Q41.67-8.63 42.14-6L42.14-6L41.02-6Q40.55-7.78 38.44-7.83L38.44-7.83Q35.77-7.64 35.63-4.31L35.63-4.31Q35.63-0.75 38.48-0.75L38.48-0.75Q39.52-0.75 40.27-1.31L40.27-1.31Q41.20-2.06 41.16-3.61L41.16-3.61ZM50.34-6.09L50.34-6.09L49.27-6.09Q49.17-7.73 47.11-7.83L47.11-7.83Q45.19-7.78 45.19-6.33L45.19-6.33Q45.19-5.39 46.22-5.25L46.22-5.25L48.66-4.69Q50.58-4.22 50.58-2.34L50.58-2.34Q50.53 0.05 47.20 0.14L47.20 0.14Q45.38 0.14 44.63-0.61L44.63-0.61Q43.69-1.31 43.73-2.77L43.73-2.77L44.86-2.77Q44.91-0.80 47.20-0.75L47.20-0.75Q49.45-0.80 49.50-2.20L49.50-2.20Q49.69-3.38 47.63-3.75L47.63-3.75L45.84-4.13Q44.02-4.64 44.02-6.19L44.02-6.19Q44.16-8.72 47.02-8.81L47.02-8.81Q50.25-8.81 50.34-6.09ZM53.20-5.06L57.70-5.06L57.70-8.58L58.88-8.58L58.88 0L57.70 0L57.70-3.98L53.20-3.98L53.20 0L52.03 0L52.03-8.58L53.20-8.58L53.20-5.06ZM66.33 0L65.48-2.48L62.02-2.48L61.13 0L59.95 0L63.19-8.58L64.50-8.58L67.59 0L66.33 0ZM63.75-7.31L62.39-3.52L65.06-3.52L63.80-7.31L63.75-7.31ZM74.16-7.59L71.25-7.59L71.25-8.58L78.19-8.58L78.19-7.59L75.28-7.59L75.28 0L74.16 0L74.16-7.59ZM84.89-3.19L84.89-8.58L86.06-8.58L86.06-3.05Q85.92 0.05 82.55 0.14L82.55 0.14Q79.41 0.05 79.27-2.86L79.27-2.86L79.27-8.58L80.44-8.58L80.44-3.19Q80.48-0.84 82.59-0.80L82.59-0.80Q84.89-0.84 84.89-3.19L84.89-3.19ZM92.48-1.03L97.64-1.03L97.64 0L91.31 0L91.31-8.58L97.55-8.58L97.55-7.59L92.48-7.59L92.48-4.92L97.17-4.92L97.17-3.89L92.48-3.89L92.48-1.03ZM103.27-3.70L100.45-3.70L100.45 0L99.28 0L99.28-8.58L103.27-8.58Q106.13-8.58 106.13-6.28L106.13-6.28Q106.13-4.88 104.91-4.22L104.91-4.22Q105.94-3.94 105.94-2.58L105.94-2.58L106.03-1.03Q105.98-0.38 106.45-0.19L106.45-0.19L106.45 0L105 0Q104.86-0.61 104.81-2.16L104.81-2.16Q104.86-3.70 103.27-3.70L103.27-3.70ZM103.36-7.64L100.45-7.64L100.45-4.69L103.17-4.69Q104.91-4.69 104.91-6.19L104.91-6.19Q104.91-7.64 103.36-7.64L103.36-7.64Z" transform="translate(-0.515625, 8.8125)"></path></g></g></g></g></g><defs v-gra="od"></defs></svg>